<svg width="19" height="19" viewBox="0 0 19 19" fill="none" xmlns="http://www.w3.org/2000/svg">
<path d="M13.0456 11.7026H12.3412L12.0916 11.462C12.6488 10.8151 13.056 10.0531 13.2841 9.23056C13.5122 8.408 13.5556 7.54522 13.4111 6.70395C12.9921 4.22689 10.9237 2.24881 8.42734 1.94586C7.54971 1.8349 6.65831 1.92605 5.82136 2.21236C4.9844 2.49866 4.22407 2.97252 3.59855 3.59768C2.97303 4.22283 2.49889 4.98272 2.21242 5.81918C1.92595 6.65565 1.83473 7.54652 1.94576 8.42364C2.24889 10.9185 4.22813 12.9857 6.70665 13.4045C7.54841 13.5489 8.4117 13.5055 9.23474 13.2776C10.0578 13.0496 10.8202 12.6426 11.4675 12.0858L11.7082 12.3353V13.0392L15.4973 16.826C15.8629 17.1914 16.4602 17.1914 16.8258 16.826C17.1913 16.4607 17.1913 15.8637 16.8258 15.4984L13.0456 11.7026ZM7.69627 11.7026C5.47631 11.7026 3.68429 9.91165 3.68429 7.69299C3.68429 5.47433 5.47631 3.68336 7.69627 3.68336C9.91623 3.68336 11.7082 5.47433 11.7082 7.69299C11.7082 9.91165 9.91623 11.7026 7.69627 11.7026Z" fill="white"/>
</svg>
