<svg width="19" height="19" viewBox="0 0 19 19" fill="none" xmlns="http://www.w3.org/2000/svg">
<path d="M11.9752 18C12.5315 18 12.5737 17.4014 12.9671 17.0049C13.3606 16.6083 13.9591 16.5706 13.9591 16.0097C13.9591 15.4489 13.3606 14.416 12.9671 14.0194C12.5737 13.6228 12.5315 14.0194 11.9752 14.0194C11.4188 14.0194 10.3846 13.6228 9.9912 14.0194C9.59777 14.416 9.9912 15.4489 9.9912 16.0097C9.9912 16.5706 9.59777 16.6083 9.9912 17.0049C10.3846 17.4014 11.4188 18 11.9752 18ZM4.03933 18C4.59571 18 5.62986 17.4014 6.02328 17.0049C6.4167 16.6083 6.02328 16.5706 6.02328 16.0097C6.02328 15.4489 6.4167 14.416 6.02328 14.0194C5.62986 13.6228 4.59571 14.0194 4.03933 14.0194C3.48294 14.0194 3.44077 13.6228 3.04735 14.0194C2.65392 14.416 2.05537 15.4489 2.05537 16.0097C2.05537 16.5706 2.65392 16.6083 3.04735 17.0049C3.44077 17.4014 3.48294 18 4.03933 18ZM17.927 3.07276C18.1889 3.06425 18.7368 3.26249 18.919 3.07276C19.1012 2.88303 18.919 2.3417 18.919 2.07761C18.919 1.81352 19.1012 1.27219 18.919 1.08246C18.7368 0.892736 18.1889 1.09098 17.927 1.08246H16.935C15.9889 1.08246 15.1567 2.1423 14.9511 3.07276L12.9671 9.04366C12.7615 9.97412 12.9213 10.0388 11.9752 10.0388H4.03933L2.05537 4.06791H11.9752C12.2345 4.05598 12.7878 4.25716 12.9671 4.06791C13.1465 3.87866 12.9671 3.3345 12.9671 3.07276C12.9671 2.81102 13.1465 2.26686 12.9671 2.07761C12.7878 1.88836 12.2345 2.08954 11.9752 2.07761H2.05537C1.74873 2.07752 1.33899 1.94211 1.06339 2.07761C0.78779 2.21312 0.260115 2.82913 0.0714111 3.07276C-0.117292 3.3164 0.134972 3.76553 0.0714111 4.06791C0.00785065 4.3703 -0.00305557 4.76321 0.0714111 5.06306L2.05537 11.034C2.16441 11.474 1.70071 11.75 2.05537 12.0291C2.41003 12.3083 3.58936 12.0292 4.03933 12.0291H11.9752C12.8932 12.0292 13.243 11.613 13.9591 11.034C14.6752 10.4549 14.752 9.94703 14.9511 9.04366L16.935 3.07276H17.927Z" fill="white"/>
</svg>
