<svg width="28" height="29" viewBox="0 0 28 29" fill="none" xmlns="http://www.w3.org/2000/svg">
<g clip-path="url(#clip0_5140_82)">
<path d="M14 2.85165C17.1699 2.85165 17.5654 2.86332 18.809 2.92165C20.0515 2.97999 20.8974 3.17482 21.6417 3.46415C22.4117 3.76049 23.0604 4.16182 23.709 4.80932C24.3023 5.39253 24.7613 6.09801 25.0542 6.87665C25.3424 7.61982 25.5384 8.46682 25.5967 9.70932C25.6515 10.953 25.6667 11.3485 25.6667 14.5183C25.6667 17.6882 25.655 18.0837 25.5967 19.3273C25.5384 20.5698 25.3424 21.4157 25.0542 22.16C24.7622 22.9391 24.303 23.6447 23.709 24.2273C23.1257 24.8204 22.4202 25.2794 21.6417 25.5725C20.8985 25.8607 20.0515 26.0567 18.809 26.115C17.5654 26.1698 17.1699 26.185 14 26.185C10.8302 26.185 10.4347 26.1733 9.19104 26.115C7.94854 26.0567 7.10271 25.8607 6.35837 25.5725C5.57942 25.2802 4.87382 24.8211 4.29104 24.2273C3.69768 23.6442 3.23863 22.9387 2.94587 22.16C2.65654 21.4168 2.46171 20.5698 2.40337 19.3273C2.34854 18.0837 2.33337 17.6882 2.33337 14.5183C2.33337 11.3485 2.34504 10.953 2.40337 9.70932C2.46171 8.46565 2.65654 7.62099 2.94587 6.87665C3.23782 6.09753 3.69698 5.39186 4.29104 4.80932C4.87399 4.21576 5.57954 3.75667 6.35837 3.46415C7.10271 3.17482 7.94737 2.97999 9.19104 2.92165C10.4347 2.86682 10.8302 2.85165 14 2.85165ZM14 8.68499C12.4529 8.68499 10.9692 9.29957 9.87525 10.3935C8.78129 11.4875 8.16671 12.9712 8.16671 14.5183C8.16671 16.0654 8.78129 17.5491 9.87525 18.6431C10.9692 19.7371 12.4529 20.3517 14 20.3517C15.5471 20.3517 17.0309 19.7371 18.1248 18.6431C19.2188 17.5491 19.8334 16.0654 19.8334 14.5183C19.8334 12.9712 19.2188 11.4875 18.1248 10.3935C17.0309 9.29957 15.5471 8.68499 14 8.68499ZM21.5834 8.39332C21.5834 8.00655 21.4297 7.63561 21.1562 7.36212C20.8827 7.08863 20.5118 6.93499 20.125 6.93499C19.7383 6.93499 19.3673 7.08863 19.0938 7.36212C18.8204 7.63561 18.6667 8.00655 18.6667 8.39332C18.6667 8.7801 18.8204 9.15103 19.0938 9.42452C19.3673 9.69801 19.7383 9.85165 20.125 9.85165C20.5118 9.85165 20.8827 9.69801 21.1562 9.42452C21.4297 9.15103 21.5834 8.7801 21.5834 8.39332ZM14 11.0183C14.9283 11.0183 15.8185 11.3871 16.4749 12.0434C17.1313 12.6998 17.5 13.5901 17.5 14.5183C17.5 15.4466 17.1313 16.3368 16.4749 16.9932C15.8185 17.6496 14.9283 18.0183 14 18.0183C13.0718 18.0183 12.1815 17.6496 11.5252 16.9932C10.8688 16.3368 10.5 15.4466 10.5 14.5183C10.5 13.5901 10.8688 12.6998 11.5252 12.0434C12.1815 11.3871 13.0718 11.0183 14 11.0183Z" fill="black"/>
</g>
<defs>
<clipPath id="clip0_5140_82">
<rect width="28" height="28" fill="white" transform="translate(0 0.518311)"/>
</clipPath>
</defs>
</svg>
